<svg xmlns="http://www.w3.org/2000/svg" viewBox="0 0 256 256">
  <circle cx="128" cy="128" r="128" fill="#25D366"/>
  <path fill="#fff" transform="scale(1.25) translate(24 24)" d="M116.4 96.6c-2.5-1.2-14.7-7.3-17-8.2-2.3-.8-4-.1-5.5 1.8-1.5 1.9-6.3 7.9-7.7 9.5-1.4 1.6-2.8 1.7-5.3.6-2.5-1.2-10.5-3.9-20-12.5-7.4-6.6-12.4-14.7-13.8-17.1-1.4-2.4-.1-3.6 1.1-4.8 1.2-1.2 2.5-2.8 3.7-4.2 1.2-1.4 1.6-2.4 2.4-4s.4-3-0.2-4.2c-.6-1.2-5.3-12.7-7.3-17.4-1.9-4.6-3.9-4-5.3-4.1-1.4-.1-3-.1-4.6-.1s-4.2.6-6.4 3.1-8.3 8.1-8.3 19.7 8.5 22.9 9.7 24.5c1.2 1.6 16.8 25.7 40.8 35.5 24 9.8 24 6.5 28.4 6.1 4.3-.4 14-5.7 16-11.2 2-5.5 2-10.2 1.4-11.2-.5-1-2.3-1.6-4.8-2.8z"/>
</svg>
